<svg width="254" height="65" viewBox="0 0 254 65" fill="none" xmlns="http://www.w3.org/2000/svg">
<g clip-path="url(#clip0_29_22611)">
<path fill-rule="evenodd" clip-rule="evenodd" d="M97.152 0.000244141H66.8901C66.8901 0.000244141 62.0456 10.065 55.1921 18.4144C50.5727 24.0136 44.2321 27.9294 37.1565 29.5528C24.9511 32.3709 10.9043 39.7936 2.48633 57.9981H32.7525C32.7525 57.9981 37.6011 47.9334 44.4547 39.5839C49.0725 33.9831 55.4138 30.0669 62.4902 28.4456C74.6873 25.6275 88.734 18.2048 97.152 0.000244141Z" fill="#E52716"/>
<path fill-rule="evenodd" clip-rule="evenodd" d="M66.4873 0.000244141H97.1518L97.038 0.250342C92.797 9.32893 87.1366 15.7148 81.0004 20.1874C75.3486 24.2477 68.9156 27.1177 62.0988 28.6198C58.5849 29.4217 55.2274 30.7875 52.1594 32.6632C49.0995 34.5312 46.3717 36.886 44.0858 39.6325C37.221 47.8941 32.3777 57.8689 32.3608 57.8981L32.3145 57.9981H1.54883L1.66254 57.748C5.9036 48.6695 11.564 42.2836 17.7002 37.811C23.3511 33.7492 29.7845 30.8791 36.6018 29.3785C40.1152 28.5751 43.4725 27.2093 46.5412 25.3353C49.5992 23.4663 52.3267 21.1133 54.6147 18.37C61.4712 10.1042 66.3188 0.129462 66.3314 0.100284L66.3777 0.000244141H66.4873ZM96.5959 0.350383H66.601C66.0787 1.40497 61.3828 10.7712 54.8759 18.5909C52.5695 21.3656 49.816 23.7444 46.7265 25.6312C43.6249 27.528 40.2304 28.9093 36.6776 29.7203C29.9089 31.2111 23.5215 34.0613 17.9108 38.0945C11.8756 42.492 6.3037 48.7695 2.10476 57.648H32.0997C32.6219 56.5934 37.3178 47.2272 43.8205 39.4075C46.1294 36.6335 48.884 34.2549 51.9741 32.3671C55.0747 30.4712 58.4676 29.0899 62.0187 28.278C68.7891 26.7882 75.1781 23.9379 80.7898 19.904C86.825 15.5064 92.3969 9.23722 96.5959 0.350383Z" fill="#E30016"/>
<path fill-rule="evenodd" clip-rule="evenodd" d="M95.5813 0.000244141C92.9648 4.97123 89.5785 9.50001 85.547 13.4199C78.7902 20.0207 67.0352 27.8837 49.3312 27.8837C30.8866 27.8837 18.6183 36.099 11.5502 42.9807C4.33474 50.026 1.03205 56.9875 0.611328 57.9981H3.0936C5.7249 53.0012 9.13282 48.4508 13.191 44.5156C19.9225 37.9484 31.7029 30.1231 49.3353 30.1231C67.78 30.1231 80.0693 21.9077 87.1248 15.026C94.3276 7.9933 97.6428 1.04865 98.0888 0.0086314L95.5813 0.000244141Z" fill="white"/>
<path fill-rule="evenodd" clip-rule="evenodd" d="M90.7968 7.04203C92.4491 4.85105 93.9169 2.52786 95.1855 0.096136L95.2356 0.000244141H98.0888L97.9759 0.246228C96.6709 2.97953 95.1016 5.57952 93.2903 8.0093C91.4094 10.5845 89.3174 12.9998 87.0359 15.2304C82.092 20.0753 76.2375 23.9006 69.8078 26.4872C63.2926 29.0592 56.341 30.3558 49.3334 30.3062C42.6825 30.2577 36.0842 31.482 29.8965 33.9126C23.7944 36.3558 18.2357 39.9742 13.5386 44.5607C11.0588 46.9822 8.81728 49.6349 6.84487 52.4823C5.62688 54.2134 4.5269 56.0242 3.55239 57.9022L3.50218 57.9981H0.611328L0.724285 57.7521C1.5721 55.937 2.55083 54.1855 3.65279 52.5115C5.95432 48.9838 8.63818 45.7192 11.656 42.7763C16.5961 37.9306 22.4479 34.1052 28.8756 31.5195C35.3909 28.9475 42.3425 27.6509 49.3501 27.7005C56.0237 27.7502 62.6445 26.5171 68.8498 24.0691C74.9659 21.6169 80.5361 17.9855 85.241 13.3834C87.2545 11.4157 89.112 9.29561 90.7968 7.04203ZM95.449 0.371303C94.1856 2.78686 92.7248 5.09466 91.0813 7.27135C89.3828 9.53275 87.5114 11.6598 85.4837 13.6335C80.7494 18.2737 75.142 21.9362 68.9837 24.4109C62.7345 26.8719 56.0692 28.1132 49.3501 28.0673C42.3873 28.0171 35.4798 29.3038 29.0053 31.8572C22.6244 34.4236 16.814 38.2192 11.907 43.0265C8.90802 45.9552 6.2423 49.2046 3.9582 52.7158C2.91739 54.3009 1.98243 55.9528 1.15938 57.6604H3.25117C4.22363 55.7989 5.31644 54.0023 6.52273 52.2821C8.51787 49.4151 10.7831 46.7444 13.2876 44.3064C18.0199 39.6892 23.618 36.0455 29.7626 33.5833C35.9979 31.1322 42.6474 29.8965 49.3501 29.9435C56.3129 29.9933 63.2202 28.7066 69.6949 26.1537C76.0755 23.5848 81.8857 19.788 86.7931 14.9802C89.0667 12.763 91.1517 10.3617 93.0268 7.80083C94.7614 5.46084 96.2767 2.9669 97.5533 0.350458L95.449 0.371303Z" fill="#E30016"/>
</g>
<path d="M60.3063 53.3337V35.8792H66.6983C67.937 35.8792 68.9625 36.0837 69.775 36.4928C70.5875 36.8962 71.1955 37.4445 71.5989 38.1377C72.0023 38.8252 72.204 39.6008 72.204 40.4644C72.204 41.1917 72.0705 41.8053 71.8034 42.3053C71.5364 42.7996 71.1784 43.1974 70.7296 43.4985C70.2864 43.794 69.7978 44.0099 69.2637 44.1462V44.3167C69.8432 44.3451 70.4086 44.5326 70.9597 44.8792C71.5165 45.2201 71.9767 45.7059 72.3404 46.3366C72.704 46.9673 72.8858 47.7343 72.8858 48.6377C72.8858 49.5298 72.6756 50.3309 72.2551 51.0411C71.8404 51.7457 71.1983 52.3053 70.329 52.7201C69.4597 53.1292 68.3489 53.3337 66.9966 53.3337H60.3063ZM62.9398 51.0752H66.7409C68.0023 51.0752 68.9057 50.8309 69.4512 50.3423C69.9966 49.8536 70.2694 49.2428 70.2694 48.5099C70.2694 47.9587 70.1301 47.4531 69.8517 46.9928C69.5733 46.5326 69.1756 46.1661 68.6586 45.8934C68.1472 45.6207 67.5392 45.4843 66.8347 45.4843H62.9398V51.0752ZM62.9398 43.4303H66.4682C67.0591 43.4303 67.5904 43.3167 68.062 43.0894C68.5392 42.8621 68.9171 42.544 69.1955 42.1349C69.4796 41.7201 69.6216 41.2315 69.6216 40.669C69.6216 39.9474 69.3688 39.3423 68.8631 38.8536C68.3574 38.365 67.5819 38.1207 66.5364 38.1207H62.9398V43.4303ZM76.0094 53.3337V35.8792H82.231C83.5833 35.8792 84.7054 36.1121 85.5975 36.5781C86.4952 37.044 87.1657 37.6889 87.6088 38.5127C88.052 39.3309 88.2736 40.2769 88.2736 41.3508C88.2736 42.419 88.0492 43.3593 87.6003 44.1718C87.1571 44.9786 86.4867 45.6065 85.589 46.0553C84.6969 46.5042 83.5748 46.7286 82.2225 46.7286H77.5094V44.4616H81.9838C82.8361 44.4616 83.5293 44.3394 84.0634 44.0951C84.6032 43.8508 84.998 43.4957 85.248 43.0298C85.498 42.5639 85.623 42.0042 85.623 41.3508C85.623 40.6917 85.4952 40.1207 85.2395 39.6377C84.9895 39.1548 84.5946 38.7854 84.0549 38.5298C83.5208 38.2684 82.8191 38.1377 81.9498 38.1377H78.6429V53.3337H76.0094ZM84.6259 45.4587L88.9384 53.3337H85.9384L81.7111 45.4587H84.6259ZM91.4782 53.3337V35.8792H97.8702C99.1088 35.8792 100.134 36.0837 100.947 36.4928C101.759 36.8962 102.367 37.4445 102.771 38.1377C103.174 38.8252 103.376 39.6008 103.376 40.4644C103.376 41.1917 103.242 41.8053 102.975 42.3053C102.708 42.7996 102.35 43.1974 101.901 43.4985C101.458 43.794 100.97 44.0099 100.436 44.1462V44.3167C101.015 44.3451 101.58 44.5326 102.132 44.8792C102.688 45.2201 103.149 45.7059 103.512 46.3366C103.876 46.9673 104.058 47.7343 104.058 48.6377C104.058 49.5298 103.847 50.3309 103.427 51.0411C103.012 51.7457 102.37 52.3053 101.501 52.7201C100.632 53.1292 99.5208 53.3337 98.1685 53.3337H91.4782ZM94.1117 51.0752H97.9128C99.1742 51.0752 100.078 50.8309 100.623 50.3423C101.169 49.8536 101.441 49.2428 101.441 48.5099C101.441 47.9587 101.302 47.4531 101.024 46.9928C100.745 46.5326 100.347 46.1661 99.8304 45.8934C99.3191 45.6207 98.7111 45.4843 98.0066 45.4843H94.1117V51.0752ZM94.1117 43.4303H97.6401C98.231 43.4303 98.7623 43.3167 99.2338 43.0894C99.7111 42.8621 100.089 42.544 100.367 42.1349C100.651 41.7201 100.794 41.2315 100.794 40.669C100.794 39.9474 100.541 39.3423 100.035 38.8536C99.5293 38.365 98.7537 38.1207 97.7083 38.1207H94.1117V43.4303ZM113.119 46.267V48.1065H106.67V46.267H113.119ZM115.956 53.3337V38.7883H118.591V44.946H125.331V38.7883H127.973V53.3337H125.331V47.1548H118.591V53.3337H115.956ZM140.008 38.7883H142.643V48.2911C142.643 49.3328 142.397 50.249 141.904 51.0397C141.417 51.8304 140.73 52.4483 139.845 52.8934C138.959 53.3337 137.925 53.5539 136.741 53.5539C135.552 53.5539 134.516 53.3337 133.63 52.8934C132.745 52.4483 132.058 51.8304 131.57 51.0397C131.083 50.249 130.839 49.3328 130.839 48.2911V38.7883H133.474V48.071C133.474 48.677 133.606 49.2168 133.872 49.6903C134.142 50.1638 134.52 50.5354 135.008 50.8053C135.496 51.0705 136.073 51.2031 136.741 51.2031C137.409 51.2031 137.986 51.0705 138.474 50.8053C138.966 50.5354 139.345 50.1638 139.61 49.6903C139.875 49.2168 140.008 48.677 140.008 48.071V38.7883ZM151.246 38.7883H153.859V49.0156C153.854 49.9531 153.656 50.7604 153.263 51.4374C152.87 52.1098 152.32 52.6282 151.615 52.9928C150.914 53.3527 150.097 53.5326 149.165 53.5326C148.312 53.5326 147.545 53.3811 146.863 53.0781C146.186 52.7703 145.649 52.3157 145.251 51.7144C144.854 51.1131 144.655 50.365 144.655 49.4701H147.275C147.28 49.8631 147.365 50.2016 147.531 50.4857C147.702 50.7698 147.936 50.9876 148.234 51.1391C148.532 51.2907 148.876 51.3664 149.264 51.3664C149.685 51.3664 150.043 51.2788 150.336 51.1036C150.63 50.9237 150.853 50.6586 151.004 50.3082C151.16 49.9578 151.241 49.5269 151.246 49.0156V38.7883ZM162.456 38.7883H165.07V49.0156C165.065 49.9531 164.867 50.7604 164.474 51.4374C164.081 52.1098 163.531 52.6282 162.826 52.9928C162.125 53.3527 161.308 53.5326 160.376 53.5326C159.523 53.5326 158.756 53.3811 158.074 53.0781C157.397 52.7703 156.86 52.3157 156.462 51.7144C156.064 51.1131 155.866 50.365 155.866 49.4701H158.486C158.491 49.8631 158.576 50.2016 158.742 50.4857C158.912 50.7698 159.147 50.9876 159.445 51.1391C159.743 51.2907 160.087 51.3664 160.475 51.3664C160.896 51.3664 161.254 51.2788 161.547 51.1036C161.841 50.9237 162.064 50.6586 162.215 50.3082C162.371 49.9578 162.452 49.5269 162.456 49.0156V38.7883ZM169.797 53.3337H166.984L172.105 38.7883H175.358L180.486 53.3337H177.673L173.788 41.7712H173.675L169.797 53.3337ZM169.889 47.6306H177.559V49.7471H169.889V47.6306ZM180.004 40.9971V38.7883H191.61V40.9971H187.114V53.3337H184.5V40.9971H180.004ZM194.633 53.49C194.202 53.49 193.833 53.3385 193.525 53.0354C193.218 52.7324 193.066 52.3631 193.071 51.9275C193.066 51.5014 193.218 51.1368 193.525 50.8337C193.833 50.5307 194.202 50.3792 194.633 50.3792C195.05 50.3792 195.412 50.5307 195.72 50.8337C196.032 51.1368 196.191 51.5014 196.196 51.9275C196.191 52.2163 196.115 52.4791 195.969 52.7158C195.827 52.9526 195.637 53.142 195.4 53.284C195.168 53.4213 194.913 53.49 194.633 53.49ZM208.133 38.7883H210.768V48.2911C210.768 49.3328 210.522 50.249 210.029 51.0397C209.542 51.8304 208.855 52.4483 207.97 52.8934C207.084 53.3337 206.05 53.5539 204.866 53.5539C203.677 53.5539 202.641 53.3337 201.755 52.8934C200.87 52.4483 200.183 51.8304 199.695 51.0397C199.208 50.249 198.964 49.3328 198.964 48.2911V38.7883H201.599V48.071C201.599 48.677 201.731 49.2168 201.997 49.6903C202.267 50.1638 202.645 50.5354 203.133 50.8053C203.621 51.0705 204.198 51.2031 204.866 51.2031C205.534 51.2031 206.111 51.0705 206.599 50.8053C207.091 50.5354 207.47 50.1638 207.735 49.6903C208 49.2168 208.133 48.677 208.133 48.071V38.7883ZM213.362 53.3337V51.6931L220.819 40.9971H213.319V38.7883H224.086V40.4289L216.636 51.1249H224.129V53.3337H213.362Z" fill="black"/>
<defs>
<clipPath id="clip0_29_22611">
<rect width="210.889" height="57.7778" fill="white" transform="translate(0.611328 0.000244141)"/>
</clipPath>
</defs>
</svg>
